<svg width="70" height="80" viewBox="0 0 70 80" fill="none" xmlns="http://www.w3.org/2000/svg">
<path d="M60 80H15C6.71875 80 0 73.2812 0 65V15C0 6.71875 6.71875 0 15 0H62.5C66.6406 0 70 3.35938 70 7.5V52.5C70 55.7656 67.9062 58.5469 65 59.5781V70C67.7656 70 70 72.2344 70 75C70 77.7656 67.7656 80 65 80H60ZM15 60C12.2344 60 10 62.2344 10 65C10 67.7656 12.2344 70 15 70H55V60H15ZM20 23.75C20 25.8281 21.6719 27.5 23.75 27.5H51.25C53.3281 27.5 55 25.8281 55 23.75C55 21.6719 53.3281 20 51.25 20H23.75C21.6719 20 20 21.6719 20 23.75ZM23.75 35C21.6719 35 20 36.6719 20 38.75C20 40.8281 21.6719 42.5 23.75 42.5H51.25C53.3281 42.5 55 40.8281 55 38.75C55 36.6719 53.3281 35 51.25 35H23.75Z" fill="white"/>
</svg>
