<svg width="78" height="80" viewBox="0 0 78 80" fill="none" xmlns="http://www.w3.org/2000/svg">
<path d="M17.5 8.75C17.5 3.92188 21.4219 0 26.25 0H30C32.7656 0 35 2.23438 35 5V75C35 77.7656 32.7656 80 30 80H25C20.3438 80 16.4219 76.8125 15.3125 72.5C15.2031 72.5 15.1094 72.5 15 72.5C8.09375 72.5 2.5 66.9062 2.5 60C2.5 57.1875 3.4375 54.5938 5 52.5C1.96875 50.2188 0 46.5938 0 42.5C0 37.6719 2.75 33.4688 6.75 31.3906C5.64062 29.5156 5 27.3281 5 25C5 18.0938 10.5938 12.5 17.5 12.5V8.75ZM60 8.75V12.5C66.9062 12.5 72.5 18.0938 72.5 25C72.5 27.3438 71.8594 29.5312 70.75 31.3906C74.7656 33.4688 77.5 37.6562 77.5 42.5C77.5 46.5938 75.5312 50.2188 72.5 52.5C74.0625 54.5938 75 57.1875 75 60C75 66.9062 69.4062 72.5 62.5 72.5C62.3906 72.5 62.2969 72.5 62.1875 72.5C61.0781 76.8125 57.1562 80 52.5 80H47.5C44.7344 80 42.5 77.7656 42.5 75V5C42.5 2.23438 44.7344 0 47.5 0H51.25C56.0781 0 60 3.92188 60 8.75Z" fill="white"/>
</svg>
