<svg width="366" height="366" viewBox="0 0 366 366" fill="none" xmlns="http://www.w3.org/2000/svg">
<path d="M331.325 182.8C331.325 100.754 264.846 34.275 182.8 34.275C100.754 34.275 34.275 100.754 34.275 182.8C34.275 264.846 100.754 331.325 182.8 331.325C264.846 331.325 331.325 264.846 331.325 182.8ZM0 182.8C0 81.8316 81.8316 0 182.8 0C283.768 0 365.6 81.8316 365.6 182.8C365.6 283.768 283.768 365.6 182.8 365.6C81.8316 365.6 0 283.768 0 182.8ZM219.003 232.142L115.964 271.772C102.111 277.128 88.4723 263.489 93.8278 249.636L133.458 146.597C135.815 140.527 140.527 135.815 146.597 133.458L249.636 93.8278C263.489 88.4723 277.128 102.111 271.772 115.964L232.142 219.003C229.785 225.073 225.073 229.785 219.003 232.142ZM205.65 182.8C205.65 170.161 195.439 159.95 182.8 159.95C170.161 159.95 159.95 170.161 159.95 182.8C159.95 195.439 170.161 205.65 182.8 205.65C195.439 205.65 205.65 195.439 205.65 182.8Z" fill="#20314D"/>
</svg>
