<svg width="91" height="70" viewBox="0 0 91 70" fill="none" xmlns="http://www.w3.org/2000/svg">
<path d="M45.0117 0C32.3867 0 22.2773 5.75 14.918 12.5938C7.60547 19.3906 2.71484 27.5 0.386719 33.0781C-0.128906 34.3125 -0.128906 35.6875 0.386719 36.9219C2.71484 42.5 7.60547 50.625 14.918 57.4062C22.2773 64.2344 32.3867 70 45.0117 70C57.6367 70 67.7461 64.25 75.1055 57.4062C82.418 50.6094 87.3086 42.5 89.6367 36.9219C90.1523 35.6875 90.1523 34.3125 89.6367 33.0781C87.3086 27.5 82.418 19.375 75.1055 12.5938C67.7461 5.76563 57.6367 0 45.0117 0ZM22.5117 35C22.5117 22.5781 32.5898 12.5 45.0117 12.5C57.4336 12.5 67.5117 22.5781 67.5117 35C67.5117 47.4219 57.4336 57.5 45.0117 57.5C32.5898 57.5 22.5117 47.4219 22.5117 35ZM45.0117 25C45.0117 30.5156 40.5273 35 35.0117 35C33.2148 35 31.5273 34.5312 30.0586 33.6875C29.9023 35.3906 30.043 37.1406 30.5117 38.875C32.6523 46.875 40.8867 51.625 48.8867 49.4844C56.8867 47.3438 61.6367 39.1094 59.4961 31.1094C57.5898 23.9688 50.8242 19.4219 43.6992 20.0469C44.5273 21.5 45.0117 23.1875 45.0117 25Z" fill="white"/>
</svg>
