<svg width="80" height="80" viewBox="0 0 80 80" fill="none" xmlns="http://www.w3.org/2000/svg">
<path d="M27.5 0C23.3594 0 20 3.35938 20 7.5V40C20 44.1406 23.3594 47.5 27.5 47.5H37.5C41.6406 47.5 45 44.1406 45 40V30H50C61.0469 30 70 38.9531 70 50C70 61.0469 61.0469 70 50 70H5C2.23438 70 0 72.2344 0 75C0 77.7656 2.23438 80 5 80H75C77.7656 80 80 77.7656 80 75C80 72.2344 77.7656 70 75 70H72.3594C77.1094 64.6875 80 57.6875 80 50C80 33.4375 66.5625 20 50 20H45V7.5C45 3.35938 41.6406 0 37.5 0H27.5ZM18.75 55C16.6719 55 15 56.6719 15 58.75C15 60.8281 16.6719 62.5 18.75 62.5H46.25C48.3281 62.5 50 60.8281 50 58.75C50 56.6719 48.3281 55 46.25 55H18.75Z" fill="white"/>
</svg>
