<svg width="24" height="24" viewBox="0 0 24 24" fill="none" xmlns="http://www.w3.org/2000/svg">
<path d="M7.50576 1.17245C7.13545 0.286508 6.16983 -0.182242 5.25108 0.0661952L4.99326 0.136508C1.96514 0.961508 -0.622361 3.89588 0.132327 7.46776C1.87139 15.6709 8.32608 22.1256 16.5292 23.8646C20.1058 24.624 23.0354 22.0318 23.8605 19.0037L23.9308 18.7459C24.1839 17.8224 23.7105 16.8568 22.8292 16.4912L18.2683 14.5928C17.4948 14.2693 16.5995 14.4943 16.0651 15.1459L14.2558 17.3584C10.9605 15.7224 8.30733 12.9849 6.78389 9.62401L8.85576 7.93651C9.50733 7.40682 9.72764 6.51151 9.40889 5.73338L7.50576 1.17245Z" fill="#20314D"/>
</svg>
